Coordinates
version=1
nRows=81
nColumns=19
inDegrees=yes

Units are S.I. units (second, meters, Newtons, ...)
Angles are in degrees.

endheader
time	1_Force_X	1_Force_Y	1_Force_Z	1_Moment_X	1_Moment_Y	1_Moment_Z	1_COP_X	1_COP_Y	1_COP_Z	2_Force_X	2_Force_Y	2_Force_Z	2_Moment_X	2_Moment_Y	2_Moment_Z	2_COP_X	2_COP_Y	2_COP_Z
0.8625	22.902	-4.512	2.599	-1.171	2.574	1.280	-52.964	0.000	-233.433	-36.939	52.572	18.188	-8.038	-2.333	5.956	145.931	0.000	136.509
0.8650	23.623	0.535	1.317	-0.698	3.050	1.332	486.164	0.000	1194.324	-35.059	55.653	17.324	-7.641	-2.632	6.305	142.591	0.000	122.513
0.8675	23.713	0.178	0.345	-0.346	2.835	1.368	1633.020	0.000	1854.252	-33.342	57.885	15.765	-7.500	-2.449	6.618	141.146	0.000	116.578
0.8700	23.309	-1.377	-1.104	-0.079	2.928	1.384	-236.381	0.000	-93.996	-33.704	58.578	17.427	-7.657	-2.560	6.565	138.867	0.000	116.561
0.8725	23.540	-2.924	-0.081	0.099	3.030	1.488	-143.170	0.000	32.714	-34.755	56.522	18.035	-8.121	-2.410	6.339	140.750	0.000	128.537
0.8750	24.416	-0.516	-0.009	-0.344	2.947	1.525	-806.390	0.000	-667.228	-35.289	53.770	18.766	-8.063	-2.621	6.304	147.760	0.000	133.435
0.8775	24.254	-2.075	1.670	-0.700	2.900	1.472	-178.545	0.000	-300.821	-34.447	53.424	17.414	-7.860	-2.437	6.305	147.990	0.000	131.670
0.8800	22.973	-2.940	1.764	-1.012	2.882	1.227	-62.159	0.000	-316.999	-34.319	55.317	17.898	-7.748	-2.465	6.322	143.139	0.000	124.716
0.8825	23.455	-2.424	1.408	-0.879	2.882	1.279	-88.210	0.000	-336.243	-34.226	56.176	17.333	-7.701	-2.392	6.322	140.879	0.000	122.431
0.8850	24.337	-1.377	0.877	-0.278	2.919	1.525	-304.528	0.000	-173.231	-34.579	57.036	17.860	-8.011	-2.456	6.391	140.262	0.000	125.582
0.8875	24.374	-0.508	0.216	-0.078	2.984	1.507	-788.507	0.000	-134.406	-34.580	55.829	17.683	-8.036	-2.530	6.409	143.607	0.000	128.903
0.8900	23.405	-1.890	0.046	-0.123	2.956	1.401	-178.899	0.000	-64.231	-34.669	54.799	17.766	-7.949	-2.530	6.409	146.375	0.000	129.676
0.8925	22.836	-1.538	0.798	-0.323	2.947	1.366	-214.077	0.000	-186.526	-34.534	55.485	17.373	-7.815	-2.512	6.357	143.520	0.000	125.982
0.8950	23.678	-1.370	1.278	-0.411	2.947	1.507	-315.149	0.000	-257.667	-34.577	55.311	17.242	-7.860	-2.530	6.322	143.380	0.000	127.300
0.8975	24.247	-2.075	1.097	-0.721	2.993	1.472	-178.558	0.000	-323.474	-34.669	55.490	18.029	-7.814	-2.465	6.287	142.357	0.000	125.414
0.9000	23.986	-2.943	1.012	-0.524	2.881	1.384	-100.018	0.000	-162.412	-34.536	56.004	17.900	-7.858	-2.465	6.252	140.324	0.000	125.142
0.9025	24.287	-2.773	0.480	-0.633	2.984	1.384	-101.155	0.000	-220.492	-34.016	54.977	18.338	-7.858	-2.428	6.304	143.450	0.000	127.126
0.9050	23.890	-1.202	0.703	-0.345	2.984	1.331	-205.236	0.000	-260.701	-34.274	55.654	17.418	-7.816	-2.595	6.461	144.748	0.000	125.582
0.9075	23.538	-1.372	0.220	-0.190	2.946	1.419	-255.251	0.000	-131.130	-35.015	56.344	17.416	-7.836	-2.531	6.444	143.267	0.000	124.397
0.9100	23.452	-1.372	0.572	-0.367	2.956	1.437	-271.004	0.000	-248.503	-34.973	56.170	17.503	-7.817	-2.614	6.357	142.136	0.000	124.361
0.9125	23.896	-2.592	1.145	-0.633	2.956	1.402	-121.867	0.000	-224.287	-34.405	55.488	17.811	-7.748	-2.465	6.252	141.519	0.000	124.403
0.9150	24.157	-3.292	0.747	-0.634	2.965	1.314	-65.592	0.000	-182.306	-34.186	55.146	17.767	-7.725	-2.419	6.356	144.100	0.000	124.796
0.9175	23.631	-3.283	0.838	-0.676	3.003	1.471	-121.067	0.000	-194.509	-34.277	54.973	18.029	-7.772	-2.511	6.322	144.003	0.000	125.819
0.9200	23.849	-2.770	0.791	-0.722	2.956	1.366	-102.159	0.000	-247.776	-34.451	56.005	18.074	-7.725	-2.475	6.269	140.560	0.000	122.632
0.9225	23.977	-1.556	0.524	-0.567	2.956	1.349	-167.295	0.000	-349.092	-34.406	54.801	17.941	-7.816	-2.483	6.218	142.660	0.000	127.095
0.9250	23.936	-2.248	0.790	-0.655	2.984	1.366	-124.218	0.000	-275.564	-34.319	55.143	17.811	-7.793	-2.502	6.305	143.279	0.000	126.005
0.9275	23.670	-1.029	0.482	-0.301	2.928	1.349	-266.727	0.000	-271.601	-34.535	55.654	17.330	-7.861	-2.586	6.375	143.404	0.000	126.452
0.9300	24.017	-1.382	0.480	-0.567	3.012	1.261	-123.506	0.000	-394.382	-34.491	55.489	17.724	-7.791	-2.419	6.200	140.646	0.000	125.255
0.9325	24.067	-2.250	0.569	-0.655	2.993	1.402	-137.068	0.000	-279.660	-34.405	54.802	17.810	-7.837	-2.437	6.287	143.921	0.000	127.583
0.9350	23.933	-1.726	0.526	-0.456	2.984	1.349	-151.822	0.000	-250.392	-34.884	55.314	17.458	-7.749	-2.502	6.322	143.622	0.000	125.108
0.9375	23.585	-1.716	0.662	-0.256	2.974	1.436	-212.839	0.000	-131.658	-34.578	56.173	17.506	-7.836	-2.521	6.409	142.729	0.000	124.704
0.9400	23.895	-2.591	1.145	-0.589	2.974	1.366	-108.358	0.000	-207.291	-34.493	55.833	17.944	-7.880	-2.456	6.252	140.718	0.000	125.887
0.9425	24.155	-2.077	0.524	-0.633	2.984	1.419	-155.047	0.000	-293.196	-34.187	54.973	17.810	-7.726	-2.456	6.304	143.608	0.000	125.175
0.9450	24.069	-2.946	0.570	-0.568	2.928	1.331	-80.736	0.000	-183.994	-34.406	55.316	17.943	-7.859	-2.483	6.252	141.960	0.000	126.690
0.9475	23.934	-1.727	0.569	-0.522	2.965	1.384	-172.061	0.000	-287.525	-34.494	55.144	17.942	-7.881	-2.493	6.322	143.735	0.000	127.492
0.9500	23.846	-2.420	0.615	-0.611	3.002	1.349	-109.714	0.000	-240.894	-34.145	55.833	17.989	-7.880	-2.475	6.374	142.611	0.000	125.849
0.9525	23.933	-2.073	0.703	-0.567	3.012	1.279	-92.411	0.000	-258.060	-34.449	55.145	17.811	-7.858	-2.446	6.304	143.378	0.000	127.181
0.9550	23.671	-1.718	0.617	-0.366	3.012	1.401	-189.874	0.000	-197.004	-34.580	56.001	17.680	-7.793	-2.540	6.391	142.855	0.000	124.167
0.9575	23.761	-1.543	0.617	-0.255	2.993	1.489	-265.680	0.000	-147.346	-34.754	55.828	17.546	-7.705	-2.558	6.392	143.442	0.000	123.092
0.9600	23.892	-2.245	0.791	-0.588	2.993	1.401	-140.821	0.000	-246.116	-34.450	55.317	17.985	-7.771	-2.484	6.252	141.994	0.000	125.056
0.9625	24.199	-1.555	0.833	-0.523	2.984	1.332	-149.629	0.000	-311.863	-34.319	55.146	18.029	-7.770	-2.456	6.287	142.952	0.000	125.398
0.9650	24.158	-3.115	0.793	-0.523	2.983	1.349	-80.556	0.000	-156.304	-34.320	56.518	17.989	-7.814	-2.540	6.357	140.723	0.000	123.156
0.9675	23.978	-2.420	0.659	-0.589	3.012	1.331	-99.956	0.000	-230.898	-34.537	55.142	17.766	-7.794	-2.530	6.287	143.150	0.000	126.058
0.9700	23.981	-2.071	0.702	-0.566	2.993	1.489	-193.084	0.000	-257.705	-34.101	54.801	17.986	-7.815	-2.474	6.270	143.353	0.000	127.047
0.9725	23.758	-1.197	0.527	-0.432	3.049	1.507	-357.300	0.000	-340.477	-34.712	55.142	17.719	-7.706	-2.558	6.392	145.188	0.000	124.501
0.9750	23.759	-1.720	0.660	-0.543	3.040	1.489	-238.403	0.000	-298.180	-34.534	55.827	17.329	-7.683	-2.549	6.357	142.644	0.000	122.875
0.9775	23.672	-1.022	0.749	-0.322	3.012	1.472	-388.312	0.000	-281.449	-34.534	56.000	17.331	-7.837	-2.540	6.461	144.067	0.000	125.244
0.9800	23.892	-1.548	0.527	-0.388	2.984	1.489	-261.102	0.000	-235.459	-34.361	55.657	17.637	-7.815	-2.521	6.287	141.684	0.000	125.374
0.9825	24.023	-2.424	0.702	-0.590	2.956	1.296	-84.603	0.000	-230.183	-34.404	54.971	17.635	-7.793	-2.483	6.270	143.167	0.000	126.547
0.9850	24.066	-2.075	0.525	-0.544	2.984	1.384	-140.186	0.000	-250.879	-34.538	54.802	17.940	-7.837	-2.474	6.374	145.618	0.000	127.485
0.9875	23.800	-1.030	0.349	-0.455	2.984	1.419	-328.624	0.000	-426.372	-34.667	55.827	17.503	-7.728	-2.577	6.392	143.375	0.000	123.532
0.9900	23.629	-1.714	0.530	-0.321	3.031	1.541	-273.196	0.000	-173.171	-34.579	56.172	17.462	-7.837	-2.549	6.426	143.043	0.000	124.753
0.9925	23.934	-0.510	0.612	-0.411	2.966	1.420	-652.957	0.000	-751.673	-34.580	56.000	17.548	-7.749	-2.567	6.409	143.172	0.000	123.500
0.9950	23.673	-1.368	0.661	-0.387	3.031	1.542	-341.004	0.000	-261.114	-34.754	56.344	17.549	-7.815	-2.549	6.374	141.823	0.000	123.907
0.9975	23.762	-1.197	0.748	-0.366	2.994	1.524	-372.036	0.000	-277.219	-34.404	55.311	17.374	-7.817	-2.567	6.322	143.240	0.000	126.407
1.0000	23.936	-1.373	0.527	-0.322	3.003	1.489	-292.973	0.000	-216.900	-34.404	55.999	17.417	-7.683	-2.558	6.392	142.720	0.000	122.421
1.0025	24.198	-1.379	0.657	-0.477	3.012	1.384	-206.821	0.000	-324.616	-34.671	54.630	18.113	-7.750	-2.511	6.322	145.234	0.000	126.147
1.0050	23.715	-1.023	0.616	-0.322	3.012	1.454	-368.707	0.000	-287.031	-34.666	56.172	17.505	-7.815	-2.530	6.374	142.183	0.000	124.318
1.0075	23.718	-1.717	0.794	-0.322	2.993	1.454	-219.463	0.000	-166.646	-34.493	56.001	17.724	-7.793	-2.558	6.409	143.097	0.000	124.138
1.0100	23.938	-2.767	0.660	-0.522	2.965	1.401	-113.432	0.000	-178.036	-34.409	54.800	18.071	-7.772	-2.539	6.287	143.934	0.000	126.199
1.0125	23.846	-2.248	0.526	-0.611	2.984	1.349	-118.208	0.000	-261.204	-34.493	54.627	17.763	-7.662	-2.511	6.270	144.140	0.000	124.829
1.0150	23.714	-1.198	0.483	-0.432	3.040	1.507	-358.918	0.000	-342.155	-34.798	56.171	17.591	-7.728	-2.577	6.287	140.749	0.000	122.700
1.0175	23.805	-1.546	0.616	-0.322	2.975	1.489	-264.019	0.000	-190.277	-34.446	56.516	17.422	-7.902	-2.503	6.339	140.527	0.000	125.174
1.0200	23.625	-0.676	0.660	-0.366	3.021	1.419	-512.318	0.000	-496.873	-34.493	56.515	17.636	-7.705	-2.596	6.444	142.414	0.000	121.513
1.0225	23.587	-2.412	0.663	-0.345	2.956	1.454	-158.532	0.000	-130.503	-34.623	57.030	17.594	-7.771	-2.595	6.322	139.104	0.000	121.604
1.0250	23.848	-1.550	0.526	-0.433	2.956	1.454	-239.475	0.000	-264.085	-34.622	56.000	17.373	-7.793	-2.549	6.461	144.138	0.000	124.423
1.0275	23.802	-1.373	0.528	-0.366	3.012	1.419	-246.242	0.000	-249.368	-34.666	56.001	17.505	-7.837	-2.521	6.357	142.307	0.000	125.096
1.0300	23.759	-1.718	0.749	-0.521	3.059	1.454	-218.124	0.000	-283.189	-34.450	55.658	17.855	-7.838	-2.539	6.287	141.755	0.000	125.598
1.0325	24.067	-1.904	0.612	-0.545	2.928	1.349	-134.498	0.000	-271.799	-34.276	55.316	18.030	-7.793	-2.502	6.270	142.167	0.000	125.425
1.0350	23.891	-2.593	0.395	-0.522	2.993	1.401	-121.847	0.000	-194.409	-34.625	55.318	18.027	-7.748	-2.474	6.304	143.077	0.000	124.614
1.0375	23.892	-1.197	0.616	-0.343	3.031	1.542	-381.728	0.000	-263.319	-34.579	55.654	17.417	-7.817	-2.595	6.305	142.192	0.000	125.594
1.0400	23.807	-1.543	0.925	-0.388	3.003	1.524	-287.070	0.000	-224.175	-34.450	55.828	17.679	-7.684	-2.595	6.340	142.263	0.000	122.604
1.0425	23.671	-1.026	0.527	-0.388	2.984	1.489	-404.219	0.000	-355.226	-34.580	56.172	17.593	-7.793	-2.567	6.374	142.116	0.000	123.869
1.0450	23.935	-1.896	0.793	-0.455	3.021	1.349	-138.023	0.000	-221.354	-34.450	55.659	17.855	-7.837	-2.512	6.322	142.374	0.000	125.582
1.0475	24.244	-2.424	0.658	-0.479	2.955	1.314	-87.676	0.000	-185.296	-34.406	54.801	17.941	-7.793	-2.465	6.217	142.656	0.000	126.683
1.0500	24.154	-1.554	0.657	-0.544	3.002	1.367	-173.515	0.000	-330.993	-34.320	54.628	17.942	-7.883	-2.511	6.270	143.994	0.000	128.723
1.0525	24.111	-2.245	0.703	-0.522	3.030	1.366	-120.691	0.000	-218.205	-34.363	55.662	18.073	-7.682	-2.475	6.287	141.666	0.000	122.604
1.0550	24.023	-2.943	0.527	-0.589	2.993	1.331	-81.434	0.000	-192.067	-34.538	55.144	18.028	-7.794	-2.511	6.218	141.883	0.000	125.831
1.0575	23.806	-1.026	0.747	-0.300	2.947	1.489	-398.331	0.000	-259.640	-34.360	56.343	17.507	-7.793	-2.558	6.357	141.199	0.000	123.553
1.0600	23.716	-0.849	0.616	-0.321	3.012	1.524	-527.266	0.000	-345.421	-34.623	55.829	17.590	-7.661	-2.558	6.374	143.022	0.000	122.264
1.0625	23.759	-0.849	0.748	-0.409	3.040	1.507	-504.027	0.000	-442.319	-34.666	57.374	17.507	-7.770	-2.596	6.426	140.124	0.000	120.930
